<svg width="196" height="30" viewBox="0 0 196 30" fill="none" xmlns="http://www.w3.org/2000/svg">
<path fill-rule="evenodd" clip-rule="evenodd" d="M141.105 23.6082C139.266 23.6082 138.299 21.8145 138.299 19.2836C138.299 16.7527 139.266 14.9345 141.105 14.9345C142.919 14.9345 143.886 16.7527 143.886 19.2836C143.886 21.8145 142.919 23.6082 141.105 23.6082ZM141.105 12.9691C138.056 12.9691 135.928 15.3773 135.928 19.2836C135.928 23.19 138.056 25.5491 141.105 25.5491C144.128 25.5491 146.256 23.19 146.256 19.2836C146.256 15.3773 144.128 12.9691 141.105 12.9691ZM129.362 11.8636V13.2145H127.91V15.23H129.362V25.3273H131.635V15.23H134.466V13.2145H131.636V12.1336C131.636 10.6591 132.119 10.0945 133.353 10.0945C133.716 10.0945 134.223 10.1927 134.489 10.2418V8.20273C134.002 8.11319 133.509 8.06364 133.014 8.05455C130.838 8.05455 129.362 9.18546 129.362 11.8636ZM110.624 12.9691C108.979 12.9691 107.987 13.7055 107.237 14.9345V13.2145H105.109V25.3282H107.382V18.4736C107.382 16.5555 108.18 14.9345 109.946 14.9345C111.324 14.9345 112.051 15.8191 112.051 18.1045V25.3282H114.324V17.6364C114.324 14.7618 112.969 12.9682 110.624 12.9682V12.9691ZM123.08 18.4482L120.903 17.9573C119.888 17.7355 119.331 17.2445 119.331 16.4336C119.331 15.5245 120.081 14.8118 121.459 14.8118C122.693 14.8118 123.54 15.4264 123.564 16.7773H125.911C125.789 14.2227 123.781 12.9691 121.483 12.9691C119.017 12.9691 117.178 14.3936 117.178 16.63C117.178 18.4482 118.267 19.5782 120.202 19.9964L122.355 20.4873C123.347 20.7082 123.878 21.2245 123.878 22.0109C123.878 23.0182 123.129 23.7309 121.605 23.7309C120.033 23.7309 119.332 22.92 119.258 21.5691H116.863C116.913 24.0255 118.75 25.5491 121.605 25.5491C124.313 25.5491 126.08 24.0509 126.08 21.8391C126.08 19.9964 125.015 18.8664 123.08 18.4482ZM192.256 12.9691C190.61 12.9691 189.62 13.7055 188.87 14.9345V13.2145H186.74V25.3282H189.015V18.4736C189.015 16.5555 189.812 14.9345 191.579 14.9345C192.957 14.9345 193.682 15.8191 193.682 18.1045V25.3282H195.956V17.6364C195.956 14.7618 194.602 12.9682 192.256 12.9682V12.9691ZM97.2214 23.6082C95.3831 23.6082 94.4156 21.8145 94.4156 19.2836C94.4156 16.7527 95.3822 14.9345 97.2214 14.9345C99.0355 14.9345 100.003 16.7527 100.003 19.2836C100.003 21.8145 99.0355 23.6082 97.2214 23.6082ZM97.2214 12.9691C94.1731 12.9691 92.0448 15.3773 92.0448 19.2836C92.0448 23.19 94.1731 25.5491 97.2214 25.5491C100.245 25.5491 102.374 23.19 102.374 19.2836C102.374 15.3773 100.245 12.9691 97.2214 12.9691ZM166.034 23.6082C164.22 23.6082 163.229 21.8145 163.229 19.2836C163.229 16.7527 164.22 14.9345 166.034 14.9345C167.849 14.9345 168.84 16.7527 168.84 19.2836C168.84 21.8145 167.849 23.6082 166.034 23.6082ZM168.768 14.8609C168.114 13.7064 166.905 12.9691 165.503 12.9691C162.914 12.9691 160.858 15.3282 160.858 19.2836C160.858 23.2391 162.914 25.5736 165.503 25.5736C167.027 25.5736 168.212 24.8373 168.913 23.6082V25.3282H171.042V8.27636H168.769V14.8609H168.768ZM154.507 12.9691C152.862 12.9691 151.87 13.7055 151.12 14.9345V13.2145H148.991V25.3282H151.265V18.4736C151.265 16.5555 152.064 14.9345 153.83 14.9345C155.208 14.9345 155.934 15.8191 155.934 18.1045V25.3282H158.207V17.6364C158.207 14.7618 156.854 12.9682 154.507 12.9682V12.9691ZM176.111 18.2273C176.353 16.0655 177.441 14.8609 178.941 14.8609C180.417 14.8609 181.554 16.0891 181.626 18.2273H176.111ZM178.917 12.9691C175.845 12.9691 173.764 15.4509 173.764 19.2591C173.764 23.2891 175.989 25.5491 178.893 25.5491C181.312 25.5491 183.271 24.1491 183.73 21.5445H181.36C181.07 22.9936 180.126 23.6818 178.868 23.6818C177.199 23.6818 176.183 22.0355 176.087 19.9964H183.972C183.997 19.7009 183.997 19.3082 183.997 19.1364C183.997 15.1309 181.892 12.9691 178.917 12.9691ZM86.905 11.1264H89.5666V8.64455H86.905V11.1264ZM60.1129 23.0182L57.2347 13.2145H54.8639L58.6622 25.3282H61.5637L65.362 13.2145H63.0154L60.1129 23.0182ZM48.523 23.6082C46.6838 23.6082 45.7163 21.8145 45.7163 19.2836C45.7163 16.7527 46.6838 14.9345 48.523 14.9345C50.3362 14.9345 51.3037 16.7527 51.3037 19.2836C51.3037 21.8145 50.3371 23.6082 48.523 23.6082ZM48.523 12.9691C45.4747 12.9691 43.3455 15.3773 43.3455 19.2836C43.3455 23.19 45.4747 25.5491 48.523 25.5491C51.5462 25.5491 53.6745 23.19 53.6745 19.2836C53.6745 15.3773 51.5462 12.9691 48.523 12.9691ZM37.0189 12.9691C35.374 12.9691 34.3823 13.7055 33.6323 14.9345V13.2145H31.5032V25.3282H33.7764V18.4736C33.7764 16.5555 34.5748 14.9345 36.3405 14.9345C37.7188 14.9345 38.4455 15.8191 38.4455 18.1045V25.3282H40.7188V17.6364C40.7188 14.7618 39.3638 12.9682 37.018 12.9682L37.0189 12.9691ZM87.0983 25.3282H89.3715V13.2145H87.0983V25.3282ZM24.5501 12.9691C22.9052 12.9691 21.9135 13.7055 21.1635 14.9345V13.2145H19.0362V25.3282H21.3094V18.4736C21.3094 16.5555 22.1077 14.9345 23.8735 14.9345C25.2518 14.9345 25.9785 15.8191 25.9785 18.1045V25.3282H28.2517V17.6364C28.2517 14.7618 26.8976 12.9682 24.551 12.9682L24.5501 12.9691ZM17.0538 0L0 30L23.3911 0H17.0538ZM81.843 10.07H79.5939V13.2155H78.1172V15.23H79.5697V21.9618C79.5697 24.3945 80.7547 25.5 82.738 25.5C83.3179 25.5 84.0446 25.4264 84.698 25.2545V23.2145C84.24 23.3405 83.7682 23.4068 83.2937 23.4118C82.1571 23.4118 81.8439 22.6745 81.8439 21.3227V15.23H84.6971V13.2145H81.843V10.0691V10.07ZM73.8589 20.2173C73.8589 22.65 72.3589 23.7064 70.7623 23.7064C69.5541 23.7064 68.8757 23.0427 68.8757 22.0355C68.8757 21.0282 69.529 20.2909 70.9806 20.0209L73.8589 19.48V20.2173ZM71.5123 12.9691C69.069 12.9691 67.0866 14.2473 66.989 16.7773H69.3115C69.3598 15.4264 70.1823 14.8118 71.5132 14.8118C72.9397 14.8118 73.8589 15.4264 73.8589 17.0727V17.6864L70.279 18.35C68.344 18.7182 66.6275 19.9227 66.6275 22.1336C66.6275 24.3209 68.1991 25.5491 70.3031 25.5491C71.7065 25.5491 73.1331 25.0327 73.9797 23.5345V25.3282H76.0364V17.1955C76.0364 14.2473 74.173 12.9691 71.5123 12.9691Z" fill="white"/>
</svg>
