<?xml version="1.0" encoding="UTF-8"?>
<svg xmlns="http://www.w3.org/2000/svg" id="Layer_1" viewBox="0 0 392.02 99.11">
  <defs>
    <style>.cls-1{fill:#0073ab;}</style>
  </defs>
  <path class="cls-1" d="m221.71,94.21l.64-1.05-18.8-11.48,16.68-9.73-2.28-3.9h0l-18.77,10.96-23.83-14.55-.63,1.04,23.26,14.21-3.58,2.09-19.27-14.19-.72.99,18.85,13.87-3.28,1.91-19.7-16.48-.78.94,19.35,16.19-17.42,10.16,2.28,3.9,18.82-10.99,13.03,10.89.78-.93-12.68-10.62,3.56-2.08,18.67,13.73.72-.98-18.25-13.42,3.99-2.32,19.37,11.82Zm-4.2-24.49l1.04,1.79-16.19,9.45-2.01-1.23,17.16-10.01Zm-43.36,27.71l-1.05-1.79,16.75-9.77,1.69,1.41-17.39,10.15Zm18.5-10.8l-1.69-1.41,3.36-1.96,1.81,1.34-3.49,2.03Zm4.63-2.71l-1.81-1.34,3.68-2.15,2.01,1.23-3.88,2.26Z"></path>
  <path class="cls-1" d="m31.51.71c-1.58.07-3.12.11-4.7.12h-.17c-1.71.04-3.42-.05-4.86-.12-.2.12-.25,1.13-.05,1.31.1.01.73.08.86.1,1.33.16,2.05.45,2.24.89.07.17.09.4.08.69-.02.31-.07.72-.23,1.25-.05.17-.12.36-.19.56-.55,1.38-6.18,18.92-7.02,20.77-.06.14-.24-.04-.3.1-.7-1.6-2.67-6.83-3.33-8.45-.11-.25-.4-1.06-.5-1.31-.55-1.36-2.19-5.8-2.74-7.18-.28-.71-1.05-2.77-1.25-3.32-.15-.41-.26-.78-.35-1.1h0c-.16-.52-.21-.93-.23-1.25-.02-.3,0-.52.08-.69.19-.44.91-.73,2.24-.89.14-.01.77-.08.87-.1.2-.17.14-1.19-.06-1.3-1.43.07-3.15.16-4.85.12-.06,0-.11,0-.17,0-1.58-.02-3.11-.05-4.69-.12l.08.05c-.72-.05-1.4-.09-2.06-.13C-.01.84-.08,1.82.11,1.97c.02.02.04.03.06.04.15,0,.79.05.91.06,1.71.16,2.4.87,3.34,3.12.1.2.39.96.5,1.21l4.29,10.97,3.69,9.35c.47,1.18,1.75,4.37,2.06,5.55.15.06.32.43.46.43.11,0,1.46.15,1.72-.53.63-1.63,9.7-26.06,10.41-27.43.06-.12.11-.23.16-.34.62-1.29,1.18-1.9,2.33-2.14.18-.07,1.23-.18,1.51-.24.13-.14.13-1.19-.05-1.31Z"></path>
  <path class="cls-1" d="m210.78.83h-9.76c-1.14,0-4.63-.03-5.85-.08-.17.08-.22,1.12-.05,1.23l.14.12c.09,0,.47.03.55.03,2.97.13,3.21.8,3.25,3.62.02.34.02,1.61.02,2.07,0,0,.02,17.37.05,17.41h0c0,.67,0,2.06-.02,2.43-.08,2.49-.35,3.06-2.92,3.28-.16,0-1.03.09-1.23.09-.17.17-.12,1.25.05,1.34,2.17-.07,3.98-.1,6.07-.12.06,0,.12,0,.19,0,1.96.01,3.77.05,6.26.12.17-.08.22-1.08.06-1.19l-.22-.17c-.17,0-1.05-.07-1.19-.07-2.81-.13-3-.81-3.04-3.84v-.34c0-2.39,0-8.25,0-8.25l-.05-.03c0-.73.09-1.8.92-1.8l1.63.02c1.1,0,4.69.05,5.08.14.92.2,1.29-2.06-.69-1.94-.27.15-4.71.18-4.71.18-.7,0-2.18.18-2.18-.56l-.05-.6V4.25c0-.4,0-1.38.04-1.54.08-.28,1.05-.3,1.58-.3h3.72c.27,0,1.19,0,1.43,0,1.64.02,2.8.07,3.62.3,2.05.56,2.42,2.02,2.89,4.75.03.12.38.23.42.36.14.16,1.27.11,1.38-.06-.11-1.24-.28-6.55-.45-7.02-.34.08-5.12.08-6.92.08Z"></path>
  <path class="cls-1" d="m74.04,24.66c-.49-.1-.75.04-.83.27-1.13,3.38-1.75,4.82-3.76,5.31-.22.05-.45.11-.71.16-.18.06-.95.11-1.9.14-.15-.01-.33-.02-.58,0-.7.04-.7.04-1.37.03-2.04.1-5.43-.28-5.7-.56-.38-.39-.34-1.17-.37-2.25,0-.22,0-.99,0-1.24v-8.01h0s0-11.17,0-11.17c0-.23,0-.84,0-1.04.01-3.34.2-4,3.23-4.16.09,0,.64-.04.74-.04l.21-.16c.16-.11.11-1.11-.06-1.19-2.26.07-4.06.1-6.01.12h-.18c-1.95.04-3.77-.05-6.18-.12-.17.08-.23,1.12-.06,1.24l.12.1c.14,0,.86.05.98.06,2.85.11,3.14.77,3.21,3.39.02.39.02,1.85.02,2.4v15.98l-.04.06s.01.98.04,1.2c0,.56,0,1.77-.02,2.36,0,.04,0,.1,0,.12-.11,2.51-.42,3.1-2.97,3.27-.15,0-1.46.19-1.46.19-.16.17-.1,1.15.06,1.24,1.5-.05,4.96-.08,6.02-.08.11,0,.44,0,.55,0h4.36c.24,0,.96,0,1.19,0,.06,0,.14,0,.21-.01,3.28,0,9.68.03,11.02.09.31-.59.89-6.14,1.07-7.11.06-.27-.08-.43-.81-.57Z"></path>
  <path class="cls-1" d="m100.34,24.66c-.49-.1-.75.04-.83.27-1.13,3.38-1.75,4.82-3.76,5.31-.22.05-.45.11-.71.16-.19.06-.94.11-1.91.14-.15-.01-.33-.02-.57,0-.7.04-.71.04-1.37.03-2.05.1-5.44-.28-5.7-.56-.38-.39-.33-1.17-.37-2.25,0-.22,0-.99,0-1.24v-8.01h0s0-11.17,0-11.17v-1.04c.02-3.34.2-4,3.23-4.16.09,0,.64-.04.74-.04l.21-.16c.17-.11.11-1.11-.06-1.19-2.25.07-4.06.1-6.01.12h-.19c-1.96.04-3.78-.05-6.18-.12-.17.08-.22,1.12-.05,1.24l.11.1c.13,0,.86.05.99.06,2.85.11,3.14.77,3.21,3.39.01.39.02,1.85.02,2.4v15.98l-.04.06s.02.98.04,1.2c0,.56,0,1.77-.02,2.36,0,.04,0,.1,0,.12-.11,2.51-.42,3.1-2.97,3.27-.16,0-1.46.19-1.46.19-.16.17-.11,1.15.05,1.24,1.5-.05,4.96-.08,6.02-.08.11,0,.44,0,.55,0h4.36c.23,0,.95,0,1.19,0,.07,0,.14,0,.21-.01,3.29,0,9.68.03,11.02.09.31-.59.89-6.14,1.08-7.11.06-.27-.09-.43-.82-.57Z"></path>
  <path class="cls-1" d="m352.14,24.55c-.49-.09-.74.05-.83.28-1.13,3.37-1.75,4.81-3.75,5.31-.22.05-.45.1-.72.15-.18.06-.94.11-1.9.14-.15-.01-.33-.02-.58,0-.7.03-1.38.04-2.05.02-1.48-.09-5.43-.29-5.7-.57-.38-.39-.33-1.17-.37-2.25,0-.22,0-.99,0-1.25v-8l-.05-.03c0-.73.1-1.8.93-1.8h1.63c1.1.01,4.69.07,5.1.15.91.2,1.27-2.06-.71-1.94-.28.15-3.81.18-4.44.18h-.27c-.71,0-2.18.18-2.18-.56l-.06-.6V4.11c0-.4,0-1.38.05-1.55.08-.27,1.06-.29,1.58-.29h3.72c.27,0,1.19,0,1.43,0,1.63.02,2.8.08,3.62.3,2.05.56,2.42,2.02,2.89,4.75.03.12.39.24.42.36.14.17,1.26.11,1.38-.06-.12-1.24-.28-6.55-.45-7.03-.34.09-5.12.09-6.92.09h-9.76c-1.15,0-4.64-.03-5.85-.09-.18.09-.22,1.13-.06,1.24l.14.12c.08,0,.47.04.55.04,2.97.12,3.21.79,3.25,3.61,0,.34,0,1.61,0,2.07v17.29s.02.08.06.13c0,.66,0,2.05-.03,2.43-.12,2.51-.42,3.1-2.97,3.27-.16,0-1.12.08-1.32.08l-.15.11c-.16.17-.11,1.15.06,1.24,1.5-.05,4.97-.09,6.03-.09h6.09c.06,0,.14,0,.21,0,3.29,0,10.36.03,11.7.08.31-.6.88-6.14,1.07-7.11.06-.26-.08-.43-.81-.57Z"></path>
  <path class="cls-1" d="m128.51.87c-.18,0-.34,0-.52,0-1.68.03-3.33-.06-5-.12-.14.05-.27.15-.36.25-.03.14,0,.62.09.73l.42.35c.08,0,.44.02.51.02,1.2.03,2.04.32,2.53.66.81.56.99,1.61,1.07,3.3.1,1.24.12,5.41.12,6.4v5.56c0,.73-.07,2.95-.14,3.62-.66,5.88-3.27,9.25-9.09,9.36-.34.01-.68,0-1.02,0-5.81-.22-8.11-3.58-8.59-9.29-.05-.6-.1-2.62-.1-3.29v-10.42c0-.59,0-2.16.02-2.57.06-2.52.36-3.15,3-3.31.14,0,.96-.06,1.14-.06.16-.11.11-1.22-.06-1.31-2.23.07-4,.1-6,.12-.07,0-.13,0-.19,0-1.96.04-3.78-.05-5.93-.12-.17.08-.22.99-.06,1.11l.42.23c.06,0,.39.02.44.02,3.21.1,3.23.95,3.23,4.81v12.96c0,3.34.23,5.42,1.85,8.34,2.05,3.36,5.41,4.71,10.25,4.71,3.62,0,6.93-.93,9.07-2.75,2.78-2.37,3.83-6.18,3.83-10.7v-5.75c0-1.25.05-7.49.2-8.85.07-.63.1-1.15.23-1.51.24-.71,1.03-1.13,2.48-1.23.16-.01,1.03-.07,1.24-.07.13-.17.17-1.17-.06-1.31-1.71.07-3.17.1-5.05.12Zm107.5-.87c-10.64,0-16.02,6.24-16.02,16.58,0,9.76,4.95,16.21,16.02,16.21,10.5,0,15.77-6.13,15.77-16.49,0-9.67-4.42-16.3-15.77-16.3Zm.36,31.26c-9.29,0-11.67-8.29-11.67-15.58,0-9.29,4.16-14.16,10.83-14.16,9.11,0,11.53,7.88,11.53,15.65,0,8.67-3.56,14.09-10.7,14.09ZM317.58,2.42c-2.9-1.5-6.33-1.84-10-1.81-2.2.02-5.77.09-8.37.13-1.79.03-3.58.06-5.39.1-.28.12-.25,1.2-.03,1.34.17,0,.94.09,1.08.1,2.45.15,2.63,1.03,2.65,3.63v19.09c0,.6,0,2.18-.01,2.58-.1,2.5-.36,3.05-3.01,3.28-.13,0-.93.09-1.11.09-.17.18-.11,1.26.06,1.34,2.11-.07,3.95-.12,5.93-.12h.4c2.23.02,5.25.29,8.3.26,3.89-.03,7.42-.77,10.12-2.37,4.64-2.77,6.78-7.66,6.78-14.07,0-5.54-2.14-10.83-7.4-13.56Zm-.22,24.75c-1.02,1.19-2.34,2.1-3.98,2.71-1.57.58-3.44.89-5.64.9-.3,0-.59,0-.88,0-2.02-.06-3.5-.39-4.79-1.22-.47-.67-.56-3.7-.56-5.19V6.52c0-1.26.06-3.62.28-3.79.57-.21,1.79-.46,3.75-.49,2.38-.04,4.32.38,6.03.81,1.68.42,3.05.84,4.15,1.55.97.63,1.7,1.42,2.27,2.32,1.8,2.82,2.26,6.4,2.26,9.7,0,4.62-.86,8.16-2.9,10.54ZM391.85.6c-1.66.08-3.1.09-5.02.12-1.68.03-3.26-.04-5.08-.1-.12,0-.24.25-.36.24-.15.06-.22.66-.17.86.08.09.18.17.29.22.13,0,.73.06.83.06,1.79.11,2.55.45,2.86,1.12.17.37.29.93.37,1.65.25,1.43.27,7.37.27,8.39v10.36c0,.59.02,2.3-.09,2.44v.16c-1.32-1.35-6.33-7.26-8.27-9.43l-4.63-5.44c-.93-1.04-7.87-9.23-8.44-10.66-.68.07-1.48.1-2.23.1-.41,0-.95,0-1.57.01-1.2.02-2.58-.05-3.87-.12-.22.11-.22,1.07-.05,1.24l.14.12c.09,0,.5.04.58.04,1.32.05,2.38.33,2.98.96.58.62.75,1.35.83,2.31.01.22.02.92.02,1.17v13.79c0,.93,0,5.83-.11,7.26-.05,1.2-.2,2.06-.53,2.55-.32.47-1.07.69-2.16.79-.15,0-1.08.09-1.28.09-.17.18-.14,1.2.06,1.34,1.68-.07,3.15-.11,5.03-.12h.16c1.7.02,3.36.04,5.26.11.04,0,.08-.09.12-.09.19-.14.22-1.01.05-1.24-.24,0-1.32-.08-1.49-.09-1.25-.08-2.1-.35-2.42-.97-.2-.41-.34-1.1-.41-1.99-.19-1.46-.2-6.98-.2-7.96v-10.5c0-.84.02-2.82.13-3.16l.06-.03c.59.62,4.88,5.61,5.64,6.48l11.28,13.15c1.54,1.74,4.67,5.23,5.17,5.91.69.94,1.24.64,1.36.82.31,0,.98-.13,1.04-.31-.09-.73-.09-7.47-.09-8.31v-11.32c0-.91,0-5.91.12-7.37.09-1.09.19-1.92.48-2.4.29-.47,1.19-.74,2.71-.89.09,0,.58-.06.68-.06.17-.17.17-1.19-.06-1.34Z"></path>
  <path class="cls-1" d="m289.75.6c-1.66.08-3.1.09-5.02.12-1.67.03-3.26-.04-5.08-.1-.12,0-.24.25-.35.24-.16.06-.22.66-.18.86.08.09.18.17.3.22.12,0,.72.06.82.06,1.8.11,2.56.45,2.87,1.12.17.37.28.93.36,1.65.26,1.43.27,7.37.27,8.39v10.36c0,.59.02,2.3-.09,2.44v.16c-1.32-1.35-6.33-7.26-8.27-9.43l-4.64-5.44c-.92-1.04-7.87-9.23-8.43-10.66-.68.07-1.47.1-2.25.1-.4,0-.94,0-1.56.01-1.2.02-2.58-.05-3.87-.12-.22.11-.22,1.07-.06,1.24l.16.12c.09,0,.49.04.57.04,1.32.05,2.39.33,2.98.96.59.62.76,1.35.83,2.31.02.22.03.92.03,1.17v13.79c0,.93.01,5.83-.11,7.26-.06,1.2-.21,2.06-.53,2.55-.32.47-1.06.69-2.16.79-.15,0-1.08.09-1.28.09-.17.18-.14,1.2.07,1.34,1.68-.07,3.14-.11,5.03-.12h.16c1.7.02,3.37.04,5.27.11.04,0,.07-.09.11-.09.2-.14.23-1.01.06-1.24-.24,0-1.32-.08-1.5-.09-1.23-.08-2.09-.35-2.4-.97-.21-.41-.34-1.1-.42-1.99-.2-1.46-.21-6.98-.21-7.96v-10.5c0-.84.03-2.82.14-3.16l.06-.03c.59.62,4.88,5.61,5.64,6.48l11.28,13.15c1.53,1.74,4.67,5.23,5.16,5.91.69.94,1.23.64,1.36.82.31,0,.98-.13,1.03-.31-.08-.73-.08-7.47-.08-8.31v-11.32c0-.91,0-5.91.12-7.37.09-1.09.19-1.92.48-2.4.28-.47,1.19-.74,2.71-.89.09,0,.58-.06.69-.06.17-.17.17-1.19-.06-1.34Z"></path>
  <path class="cls-1" d="m40.43,18.65l.02-11.19v-1.04c.02-3.34.24-4.13,3.27-4.28.09,0,.64-.04.73-.04l.21-.17c.17-.11.11-1.11-.06-1.19-2.25.07-3.99.12-5.94.14h-.19c-1.96.04-2.67-.05-5.08-.12-.17.08-.22,1.12-.05,1.24l.11.11c.14,0,.86.05.99.05,1.71.13,2.04.77,2.11,3.4.01.39,0,1.85,0,2.4v18.76c-.02,3.34-.26,4.13-3.29,4.28-.09,0-.64.04-.73.04l-.22.16c-.17.12-.11,1.11.06,1.19,2.25-.07,3.99-.12,5.94-.14h.18c1.96-.04,3.78.04,6.18.12.17-.08.23-1.12.06-1.24l-.11-.11c-.14,0-.86-.05-.98-.06-2.85-.11-3.14-.76-3.21-3.39-.02-.39,0-8.94,0-8.94Z"></path>
  <path class="cls-1" d="m155.58,28.07c.73-1.5,7.59-14.76,7.59-14.76.94-1.83,2.72-5.58,3.06-6.1h.09l.13,18.15h0v1.04c0,.68,0,1.24,0,1.73-.03,1.01-.13,1.66-.53,2.04-.03.02-.07.05-.1.07-.04.03-.07.05-.11.08-.39.23-1.01.33-1.94.38-.09,0-.64.05-.74.05l-.2.15h0s-.01.04-.03.05c0,.01-.02.03-.03.05-.16.25-.15.63,0,.9.03.1.06.18.11.21,2.26-.08,3.41-.13,5.36-.14.06,0,.12,0,.18,0,1.97-.04,3.54.05,5.94.12.17-.08.22-1.13.05-1.24l-.11-.11c-.14,0-.87-.05-.99-.06-.94-.04-1.55-.14-1.98-.35-.81-.57-.83-1.68-.93-3.37-.37-6.75-.42-15.42-.52-20.4,0-.41,0-.78,0-1.12.06-1.87.48-2.71,1.93-3.1.35-.06.76-.11,1.28-.13.13,0,.85-.06.99-.06l.11-.1c.05-.04.08-.16.09-.32.06-.22.04-.49-.04-.68-.03-.12-.06-.22-.11-.24-2.4.08-4.23.16-6.19.12h-.19c-.4-.02-.83-.04-1.34-.1-.09,2.16-1.45,4.74-3.56,9l-4.41,8.96c-.93,1.9-2.9,5.59-3.8,7.43l.94,1.85Z"></path>
  <path class="cls-1" d="m146.16,8.57c-1.46-3-2.63-5.91-2.44-7.74-.63.06-1.2.09-1.75.11h-.17c-1.77.04-3.45-.03-5.53-.1-.06,0-.1,0-.15-.01h0c-.17,0-.33,0-.51,0-.17.08-.22,1.13-.06,1.24l.11.1c.14,0,.87.05.99.05.59.03,1.04.08,1.43.16,1.07.32,1.54.83,1.69,1.88,0,.05.01.09.02.13.06.47.06,1.04.04,1.74-.09,2.57-.28,6.56-.52,10.45-.28,4.64-.52,7.22-.79,10.31-.21,2.42-.62,3.2-1.61,3.57-.37.07-.81.12-1.36.15-.12,0-.85.05-.99.05l-.11.11c-.17.11-.11,1.16.06,1.24h.13s.02.03.03.04c1.6-.09,3.28-.13,4.78-.13,1.78,0,3.62.05,5.21.13.01,0,.02-.02.04-.03.04,0,.07,0,.12,0,.17-.08.23-1.08.06-1.19l-.21-.17c-.1,0-.65-.04-.74-.04-1.56-.08-2.38-.34-2.81-1.02-.24-.65-.3-1.65-.3-3.23,0-3.99.18-8.16.33-11.02.13-2.72.27-5.45.46-8.35h.09c1.04,2.16,2.02,4.6,3,6.75,0,0,7.26,15.19,8.37,17.7.09.14.18.31.43.32.19,0,.33-.1.43-.24.51-1.06.86-1.83,1.72-3.62l-9.49-19.37Z"></path>
</svg>
